<svg width="102" height="35" viewBox="0 0 102 35" fill="none" xmlns="http://www.w3.org/2000/svg">
    <path fill-rule="evenodd" clip-rule="evenodd" d="M63.1288 17.9921C65.3361 17.9921 66.5481 16.1196 66.5481 13.8339C66.5481 11.3973 65.2152 9.58406 63.1288 9.58406C61.0423 9.58406 59.7094 11.3973 59.7094 13.8339C59.7094 16.1196 60.92 17.9921 63.1288 17.9921ZM63.1288 7.17041C66.9216 7.17041 69.303 10.0579 69.303 13.8339C69.303 17.6556 66.7608 20.4973 63.1288 20.4973C59.4954 20.4973 56.9545 17.6556 56.9545 13.8339C56.9545 10.0579 59.3359 7.17041 63.1288 7.17041Z" fill="#444445"/>
    <path fill-rule="evenodd" clip-rule="evenodd" d="M13.7494 12.7114C13.7494 11.162 15.0238 9.65029 16.7608 9.65029C18.5429 9.65029 19.7721 11.0893 19.7721 12.7114H13.7494ZM20.1336 17.1053C20.1336 17.1053 18.8897 18.0355 17.1568 18.0355C15.3175 18.0355 13.7494 16.5466 13.7494 14.8141H22.4473C22.4473 14.8141 22.5098 14.2972 22.5098 13.6214C22.5098 11.1688 21.1157 7.22318 16.7794 7.22318C13.1872 7.22318 10.8483 10.2157 10.8483 13.6214C10.8483 17.9305 13.5181 20.5488 17.0598 20.5488C19.6459 20.5488 21.5357 18.9536 21.5357 18.9536L20.1336 17.1053Z" fill="#444445"/>
    <path fill-rule="evenodd" clip-rule="evenodd" d="M86.5436 12.7114C86.5436 11.162 87.8181 9.65029 89.5563 9.65029C91.3371 9.65029 92.5664 11.0893 92.5664 12.7114H86.5436ZM92.9292 17.1053C92.9292 17.1053 91.684 18.0355 89.951 18.0355C88.1131 18.0355 86.5436 16.5466 86.5436 14.8141H95.2416C95.2416 14.8141 95.3054 14.2972 95.3054 13.6214C95.3054 11.1688 93.91 7.22318 89.5736 7.22318C85.9815 7.22318 83.6425 10.2157 83.6425 13.6214C83.6425 17.9305 86.3137 20.5488 89.854 20.5488C92.4401 20.5488 94.3299 18.9536 94.3299 18.9536L92.9292 17.1053Z" fill="#444445"/>
    <path fill-rule="evenodd" clip-rule="evenodd" d="M35.058 11.4602V20.3529H32.1888V12.9275C32.1888 10.8867 31.7715 9.89194 30.0664 9.89194C28.6086 9.89194 26.7932 11.3673 26.7932 12.9275V20.3516H23.9453V7.61559H26.7932V8.7854C26.7932 8.7854 28.2764 7.17001 30.4239 7.17001C33.0699 7.17001 35.058 8.53905 35.058 11.4602Z" fill="#444445"/>
    <path fill-rule="evenodd" clip-rule="evenodd" d="M82.0663 11.4602V20.3529H79.1971V12.9275C79.1971 10.8867 78.7785 9.89194 77.0734 9.89194C75.6169 9.89194 73.8002 11.3673 73.8002 12.9275V20.3516H70.9536V7.61559H73.8002V8.7854C73.8002 8.7854 75.2833 7.17001 77.4322 7.17001C80.0782 7.17001 82.0663 8.53905 82.0663 11.4602Z" fill="#444445"/>
    <path fill-rule="evenodd" clip-rule="evenodd" d="M37.5238 10.4845H36.2347V7.61584H37.5238V5.09181L40.3731 3.26508V7.61584H42.6722V10.4845H40.3731V15.686C40.3731 17.6205 43.1174 17.4657 43.1174 17.4657V20.3532C40.0143 20.3532 37.5238 19.4889 37.5238 15.686V10.4845Z" fill="#444445"/>
    <mask id="mask0_0_47" style="mask-type:luminance" maskUnits="userSpaceOnUse" x="0" y="0" width="102" height="35">
        <path fill-rule="evenodd" clip-rule="evenodd" d="M0.5 34.1402H101.124V0.000396729H0.5V34.1402Z" fill="white"/>
    </mask>
    <g mask="url(#mask0_0_47)">
        <path fill-rule="evenodd" clip-rule="evenodd" d="M45.3015 20.365H48.1574V7.62772H45.3015V20.365Z" fill="#444445"/>
        <path fill-rule="evenodd" clip-rule="evenodd" d="M45.3015 6.1456H48.1574V3.27695H45.3015V6.1456Z" fill="#444445"/>
        <path fill-rule="evenodd" clip-rule="evenodd" d="M88.5033 24.5533L81.8705 28.5473V24.5533H53.9786V3.1131H98.0359L98.0491 24.5533H88.5033ZM101.107 -0.000549316H50.9061V27.6656H78.798V34.1406L89.5465 27.6656H101.123L101.107 -0.000549316Z" fill="#444445"/>
        <path fill-rule="evenodd" clip-rule="evenodd" d="M10.1915 16.6516C10.1915 18.333 8.49441 20.5488 5.31823 20.5488C2.55535 20.5488 0.500793 18.3303 0.500793 18.3303L2.16198 16.4591C2.16198 16.4591 3.8617 17.9843 5.29032 17.9843C6.49169 17.9843 7.29969 17.4378 7.29969 16.6516C7.29969 14.5086 0.801136 14.9326 0.801136 10.9009C0.801136 9.41068 2.13407 7.22318 5.65312 7.22318C8.2552 7.22318 9.88715 9.09567 9.88715 9.09567L8.50637 10.9722C8.50637 10.9722 7.18141 9.67721 5.50029 9.67721C4.48498 9.67721 3.63711 10.0986 3.63711 10.847C3.63711 12.5553 10.1915 12.2564 10.1915 16.6516Z" fill="#444445"/>
    </g>
</svg>
